<?xml version="1.0" encoding="utf-8"?>
<!-- Generator: Adobe Illustrator 24.2.3, SVG Export Plug-In . SVG Version: 6.00 Build 0)  -->
<svg version="1.1" id="Ebene_1" xmlns="http://www.w3.org/2000/svg" xmlns:xlink="http://www.w3.org/1999/xlink" x="0px" y="0px"
	 viewBox="0 0 96 15.3" style="enable-background:new 0 0 96 15.3;" xml:space="preserve">
<style type="text/css">
	.st0{fill:#FBB829;}
	.st1{fill:#F44282;}
	.st2{fill:#EF6565;}
	.st3{fill:#29CECC;}
	.st4{fill:#98DD85;}
</style>
<path class="st0" d="M95.3,10.3L95,10.9c0,0-0.3-0.5-0.6-0.3l0-0.5C94.3,10.1,94.9,9.8,95.3,10.3z"/>
<path class="st1" d="M95.4,13.8C95.4,13.8,95.5,13.8,95.4,13.8c-0.1,0.2-0.3,0.4-0.3,0.4l-0.6-0.7c0.5-0.4,0.5-0.9,0.5-0.9l0.7,0.8
	c0,0,0,0.1,0,0.1c0,0,0,0,0,0L95.4,13.8z"/>
<path class="st2" d="M95.4,13.8l0.2-0.3c0,0,0,0,0,0c0.1,0.1,0.2,0.1,0.3,0.1V14C95.8,14,95.6,13.9,95.4,13.8
	C95.5,13.8,95.4,13.8,95.4,13.8z"/>
<path class="st3" d="M95.5,6.7l0.3-0.2C95.9,6.6,96,6.7,96,6.8v0.4c-0.2,0.1-0.4,0.2-0.4,0.2C95.7,7.1,95.5,6.7,95.5,6.7z"/>
<path class="st4" d="M6.6,10.1c0,0,0.1-0.8,0-1.4L7,9.3c0,0,0.1,0.5-0.1,0.8L6.6,10.1z"/>
<path class="st4" d="M7.1,7.2c0,0,0.2-0.6,0.2-1l0.2,0.4c0,0,0,0.4-0.2,0.6L7.1,7.2z"/>
<path class="st4" d="M13.4,14.8C13.4,14.8,13.4,14.8,13.4,14.8c-0.1,0.1-0.3,0.1-0.4,0.1l-0.2-0.4c0,0,1.1-0.4,1.7-0.9l-0.4,0.9
	c0,0,0,0,0,0c0,0,0,0,0-0.1L13.4,14.8z"/>
<path class="st4" d="M2.4,9.8c0,0-0.8-0.5-1.4-0.7l0.8-0.2c0,0,0.6,0.2,0.8,0.6L2.4,9.8z"/>
<path class="st4" d="M3.3,6.7L3,6.6c0,0,0.5-0.6,0.7-1.1l0.1,0.6C3.8,6.1,3.7,6.5,3.3,6.7z"/>
<path class="st4" d="M25.7,11.1L25.7,11.1L25.7,11.1C25.7,11.2,25.7,11.1,25.7,11.1z"/>
<path class="st4" d="M26.6,11.7c0.1,0.2,0.3,0.6,0.2,1l-0.4,0.2c0,0-0.1-0.3-0.2-0.6c0.2,0,0.4-0.1,0.4-0.1L26.6,11.7z"/>
<path class="st4" d="M25.9,11.3l0.5,0.3C26.2,11.6,26,11.4,25.9,11.3z"/>
<path class="st4" d="M28.6,9.4l-0.3-0.2c0,0,0.6-0.7,0.9-1.3l0.1,0.8C29.3,8.7,29,9.2,28.6,9.4z"/>
<path class="st4" d="M38.7,6c0,0-0.4,0.2-0.8,0.1l-0.1-0.3c0,0,0.8-0.1,1.3-0.3c0,0,0,0,0,0L38.7,6z"/>
<path class="st4" d="M34.1,13.5c0,0-0.7-0.9-1.3-1.4l1,0.1c0,0,0.6,0.4,0.7,1L34.1,13.5z"/>
<path class="st4" d="M49.9,15.2c0,0-0.7,0-1.2-0.4l0-0.5c0,0,1.2,0.3,1.9,0.3L49.9,15.2z"/>
<path class="st4" d="M49.6,8.7c0,0,0.1-0.7,0.1-1.1L50.1,8c0,0,0,0.4-0.2,0.7L49.6,8.7z"/>
<path class="st4" d="M43.1,7.2L43.5,7c0,0,0.3,0,0.5,0.2l0,0.2C44,7.4,43.5,7.2,43.1,7.2z"/>
<path class="st4" d="M46.9,11.2l0.2-0.2c0,0,0.6,0.9,1.2,1.4l-0.9-0.1c0,0-0.4-0.3-0.5-0.8l0.3-0.2C47.2,11.4,47.1,11.3,46.9,11.2z"
	/>
<path class="st4" d="M54.6,12.5l-0.4,0.3c0,0-0.6-1-1.1-1.5l0.9,0.2C54.1,11.4,54.6,11.9,54.6,12.5z"/>
<path class="st4" d="M59.4,7l-0.2-0.2c0,0,0.6-0.4,0.9-0.7l-0.1,0.6C60.1,6.7,59.8,7,59.4,7z"/>
<path class="st4" d="M57.2,4.4l0.6,0c0,0,0.4,0.3,0.5,0.6l-0.2,0.2C58.1,5.3,57.6,4.7,57.2,4.4z"/>
<path class="st4" d="M71.1,14.6c0,0-0.6-0.3-0.9-0.9l0.3-0.4c0,0,0.9,0.8,1.6,1.1L71.1,14.6z"/>
<path class="st4" d="M74.3,8.5L74,8.3c0,0,0.2-0.3,0.4-0.6c0,0,0,0,0,0l0,0c0.1-0.2,0.2-0.4,0.3-0.6l0.1,0.7
	C74.9,7.8,74.7,8.3,74.3,8.5z"/>
<path class="st4" d="M62.8,11.7c0,0,0.6-0.3,1.2-0.2l0.1,0.4c0,0-1.2,0.2-1.9,0.5L62.8,11.7z"/>
<path class="st4" d="M77.6,11.8l0.9,0.3c0,0,0.5,0.5,0.5,1.1l-0.4,0.3C78.6,13.4,78.1,12.3,77.6,11.8z"/>
<path class="st4" d="M84.7,7.7l-0.2-0.3c0,0,0.8-0.4,1.2-0.8l-0.2,0.7C85.5,7.3,85.1,7.6,84.7,7.7z"/>
<path class="st4" d="M77.3,4l0.5-0.2c0,0,0.4,0.1,0.6,0.4l-0.1,0.2C78.2,4.4,77.7,4.1,77.3,4z"/>
<path class="st4" d="M92.2,9.8L91.5,10c0,0-0.5-0.1-0.8-0.5l0.1-0.3C90.9,9.2,91.7,9.6,92.2,9.8z"/>
<path class="st4" d="M91.7,13.6c0,0.1,0,0.3,0,0.4l-0.6-0.8c0,0,0-0.2,0-0.4C91.2,13.1,91.3,13.4,91.7,13.6z"/>
<path class="st4" d="M91.1,12.6c0-0.2,0.1-0.4,0.2-0.6l0.5,0c0,0-0.1,0.5-0.1,1c-0.2-0.2-0.3-0.4-0.3-0.6L91.1,12.6z"/>
<path class="st4" d="M85.2,14.8c-0.4,0.1-1.1,0.2-1.6,0.4l0.5-0.8c0,0,0.6-0.3,1.2-0.1l0.1,0.4c0,0-0.1,0-0.2,0c0,0-0.1-0.1-0.1-0.1
	C85.2,14.7,85.2,14.8,85.2,14.8z"/>
<path class="st4" d="M92.5,5.3c0,0-0.2,0.3-0.4,0.4l-0.2-0.1c0,0,0.4-0.4,0.6-0.7L92.5,5.3z"/>
<path class="st4" d="M18.6,10.4c0.1,0,0.1-0.1,0.2-0.1L18.5,10c0,0,0,0-0.1,0.1c-0.2-0.3-0.5-0.6-0.7-0.9l0.8,0.1
	c0,0,0.5,0.4,0.5,0.9L18.6,10.4C18.6,10.5,18.6,10.4,18.6,10.4z"/>
<path class="st0" d="M4.4,10.7l0.4,0.5c0,0-0.4,0.8-1.2,0.4l-0.1-0.9C3.5,10.8,4.1,11.2,4.4,10.7z"/>
<path class="st0" d="M4.7,7.8l0-0.7c0,0,0.4,0.3,0.7,0l0.3,0.4C5.7,7.5,5.3,8.1,4.7,7.8z"/>
<path class="st0" d="M1.2,7.7c0,0,0.2-0.4-0.1-0.5l0.3-0.3c0,0,0.5,0.2,0.3,0.7L1.2,7.7z"/>
<path class="st0" d="M7.3,13.8l0.9-0.4c0,0-0.1,0.7,0.4,0.8l-0.4,0.6C8.2,14.8,7.3,14.7,7.3,13.8z"/>
<path class="st0" d="M14.7,12.8l-0.4,0.6c0,0-0.9-0.1-0.9-1l0.9-0.4C14.3,11.9,14.2,12.7,14.7,12.8z"/>
<path class="st0" d="M8.7,9.8c0,0,0.6-0.4,0.3-0.9l0.7-0.1c0,0,0.6,0.7-0.1,1.4L8.7,9.8z"/>
<path class="st0" d="M13.1,7.1l0.7-0.6c0,0,0.1,0.8,0.7,0.7l-0.2,0.7C14.3,7.8,13.3,8,13.1,7.1z"/>
<path class="st0" d="M12.2,4.5C12.2,4.5,12.2,4.5,12.2,4.5L12.2,4.5L12.2,4.5z"/>
<path class="st0" d="M12.6,5.1l-0.4-0.5c0.1,0,0.3-0.1,0.5,0l0.1-0.4l0.4,0.2C13.3,4.3,13.3,5,12.6,5.1z"/>
<path class="st0" d="M10.5,2.2l-0.4-0.3c0,0,0.4-0.1,0.3-0.4l0.4,0C10.8,1.5,11,2,10.5,2.2z"/>
<path class="st0" d="M15.3,13.5l0.5,0.8c0,0-0.8,0-0.8,0.6l-0.6-0.3C14.5,14.6,14.4,13.6,15.3,13.5z"/>
<path class="st0" d="M26.6,11.7l0,0.5c0,0-0.2,0.1-0.4,0.1c-0.3,0-0.6,0-0.9-0.4l0.4-0.6l0,0l0.1-0.1c0,0,0,0.1,0.1,0.2
	c0.1,0.1,0.3,0.3,0.5,0.3c0,0,0.1,0,0.1,0L26.6,11.7z"/>
<path class="st0" d="M22.8,5.4L22.4,5c0,0,0.5,0,0.4-0.4l0.4,0.1C23.2,4.7,23.4,5.3,22.8,5.4z"/>
<path class="st0" d="M39.7,5.1c0,0-0.2,0.5,0.2,0.6l-0.3,0.3c0,0-0.5-0.2-0.5-0.6c0,0,0,0,0,0c0-0.1,0-0.1,0-0.2L39.7,5.1z"/>
<path class="st0" d="M36.5,15.2l-0.3-0.5c0,0,0.5-0.7,1.2-0.3l0,0.8C37.3,15.2,36.8,14.7,36.5,15.2z"/>
<path class="st0" d="M27.9,14.4l0.5-0.3c0,0,0.8,0.5,0.4,1.2l-0.9,0C28,15.3,28.4,14.7,27.9,14.4z"/>
<path class="st0" d="M47.7,5.8l0.2-0.4c0,0,0.2,0.3,0.4,0.2l0.1,0.3C48.4,5.8,48,6.1,47.7,5.8z"/>
<path class="st0" d="M41.7,11.3c0,0,0.2-0.2,0.5-0.2l-0.5,0.6c0,0-0.2-0.7-0.7-0.5l0-0.7c0,0,0.4-0.1,0.7,0c0,0,0,0-0.1,0L41.7,11.3
	z"/>
<path class="st0" d="M58.1,8.9l-0.2,0.3c0,0-0.6-0.1-0.5-0.6l0.5-0.2C57.8,8.3,57.7,8.8,58.1,8.9z"/>
<path class="st0" d="M62.1,5.3l0.4-0.5c0,0,0.1,0.5,0.5,0.4l0,0.4C62.9,5.6,62.4,5.8,62.1,5.3z"/>
<path class="st0" d="M55.4,14.7L55.3,14c0,0,0.7-0.6,1.3,0.1L56.3,15C56.3,15,55.9,14.3,55.4,14.7z"/>
<path class="st0" d="M74.5,7.7c-0.1,0-0.5,0.3-0.8-0.1l0.2-0.5c0,0,0.2,0.4,0.5,0.2L74.5,7.7L74.5,7.7C74.5,7.7,74.5,7.7,74.5,7.7z"
	/>
<path class="st0" d="M73.8,4.2l-0.1-0.4c0,0,0.3,0.1,0.4-0.2l0.3,0.2C74.3,3.8,74.2,4.2,73.8,4.2z"/>
<path class="st0" d="M72.5,5.5l-0.1-0.3c0,0,0.3-0.2,0.6,0.1l-0.1,0.4C72.9,5.6,72.7,5.3,72.5,5.5z"/>
<path class="st0" d="M83.5,6.3l-0.3,0.2c0,0-0.5-0.2-0.3-0.7l0.5-0.1C83.4,5.8,83.2,6.2,83.5,6.3z"/>
<path class="st0" d="M81.9,8.2l-0.2-0.4c0,0,0.4-0.5,0.9-0.1l-0.1,0.6C82.6,8.3,82.2,7.9,81.9,8.2z"/>
<path class="st0" d="M82.4,13l0.2,0.9c0,0-0.7-0.3-0.9,0.2l-0.5-0.5C81.2,13.6,81.5,12.8,82.4,13z"/>
<path class="st0" d="M88.9,13.7L88.9,13.7C88.8,13.7,88.8,13.7,88.9,13.7C88.9,13.7,88.9,13.7,88.9,13.7z"/>
<path class="st0" d="M88.2,13.2C88.2,13.2,88.2,13.1,88.2,13.2L88.2,13.2L88.2,13.2z"/>
<path class="st0" d="M88.6,13c0.1-0.1,0.2-0.3,0.2-0.5l0.6,0.1c0,0,0.2,0.6-0.2,0.9c0-0.1,0-0.3,0-0.5C89.1,13.1,88.9,13,88.6,13z"
	/>
<path class="st0" d="M95.1,8.7l0.4-0.6c0,0,0.1,0.5,0.5,0.4v0.4V9C95.9,9.1,95.3,9.2,95.1,8.7z"/>
<path class="st0" d="M91.9,7.4l-0.6-0.1c0,0,0.2-0.2,0.2-0.4c0-0.1,0.1-0.1,0.1-0.2l-0.1-0.1l0.3-0.1C91.8,6.5,92.3,6.9,91.9,7.4z"
	/>
<path class="st0" d="M94.5,5.5l0.4-0.3c0,0,0,0.4,0.3,0.3l-0.1,0.3C95.1,5.9,94.6,6,94.5,5.5z"/>
<path class="st0" d="M93.3,6.4L93,5.9c0,0,0.4,0.1,0.4-0.3l0.3,0.2C93.8,5.8,93.8,6.4,93.3,6.4z"/>
<path class="st1" d="M2.2,12.7c0-0.1-0.1-0.1-0.1-0.2c0-0.2,0-0.3,0-0.3l0.9,0c0,0.1,0,0.2,0,0.3c-0.2,0-0.5,0-0.8-0.1
	C2.2,12.5,2.2,12.6,2.2,12.7z"/>
<path class="st1" d="M2.7,13.2C2.8,13,2.9,12.8,3,12.7c0.1,0.4,0.3,0.5,0.3,0.5L2.7,13.2z"/>
<path class="st1" d="M3.4,8.7C3.3,8.6,3.4,8.1,3.4,8.1L4,8.3C3.9,8.6,3.9,8.8,4,8.9l0,0.1L3.4,8.7z"/>
<path class="st1" d="M9.8,11.5l0-0.8c0.1-0.2,0.8-0.3,0.8-0.3l0.1,0.8C10.1,11.2,9.8,11.5,9.8,11.5z"/>
<path class="st1" d="M1.1,6.6l0.2-0.3c0.2,0.2,0.4,0.1,0.4,0.1L1.5,6.7C1.4,6.8,1.1,6.6,1.1,6.6z"/>
<path class="st1" d="M3.1,4.5c0-0.1,0.2-0.3,0.2-0.3l0.2,0.2C3.3,4.6,3.3,4.8,3.3,4.8L3.1,4.5z"/>
<path class="st1" d="M0.4,2.9l0.2-0.2c0.1,0.1,0.3,0.1,0.3,0.1L0.7,3.1C0.6,3.1,0.4,2.9,0.4,2.9z"/>
<path class="st1" d="M12.3,4.6C12.2,4.6,12.2,4.6,12.3,4.6L12.3,4.6L12.3,4.6l0.1-0.5c0.1-0.1,0.5,0,0.5,0l0,0l-0.1,0.4
	C12.5,4.5,12.3,4.6,12.3,4.6z"/>
<path class="st1" d="M15.5,13.4l0.8-0.2c0.2,0,0.4,0.7,0.4,0.7L16,14.1C15.9,13.6,15.5,13.4,15.5,13.4z"/>
<path class="st1" d="M22.4,6.5l-0.2-0.3c0-0.1,0.2-0.3,0.2-0.3l0.2,0.3C22.4,6.3,22.4,6.5,22.4,6.5z"/>
<path class="st1" d="M15.9,7.3c0.3,0,0.5-0.2,0.5-0.2l0,0.5C16.4,7.8,16,7.8,16,7.8L15.9,7.3z"/>
<path class="st1" d="M22.8,8.6l-0.1,0.3c-0.2-0.1-0.4,0-0.4,0l0.1-0.4C22.5,8.5,22.8,8.6,22.8,8.6z"/>
<path class="st1" d="M23.2,13.9c0.5,0.3,1,0.2,1,0.2L24,14.2c-0.3,0-0.8,0.1-1.3,0.4L23.2,13.9z"/>
<path class="st1" d="M23.6,14.9c-0.1,0.1-0.3,0-0.4,0c0.2-0.1,0.4-0.1,0.5-0.2L23.6,14.9z"/>
<path class="st1" d="M30.6,10.1c-0.5,0.2-0.6,0.6-0.6,0.6l-0.3-0.8c0-0.3,0.6-0.5,0.6-0.5L30.6,10.1z"/>
<path class="st1" d="M31.4,6.6l-0.5-0.2C30.8,6.3,31,5.9,31,5.9l0.5,0.2C31.3,6.4,31.4,6.6,31.4,6.6z"/>
<path class="st1" d="M30,3.4l0.4-0.1c0.1,0.3,0.3,0.4,0.3,0.4l-0.5,0.1C30.1,3.8,30,3.4,30,3.4z"/>
<path class="st1" d="M28.3,2.8l0.3-0.4c0.2,0.2,0.5,0.1,0.5,0.1L28.8,3C28.6,3.1,28.3,2.8,28.3,2.8z"/>
<path class="st1" d="M39.2,4.4l0.2-0.6c0.1-0.1,0.5,0,0.5,0l-0.1,0.5C39.5,4.3,39.2,4.4,39.2,4.4z"/>
<path class="st1" d="M35.1,12.7l-0.7-0.6c0.4-0.5,0.3-1,0.3-1l0.8,0.6C35.6,12.1,35.1,12.7,35.1,12.7z"/>
<path class="st1" d="M41.7,11.3l0-0.7c0,0,0,0,0.1,0c0.2-0.1,0.6-0.1,0.6-0.1l0,0.7c-0.1,0-0.1,0-0.2,0
	C41.9,11.1,41.7,11.3,41.7,11.3z"/>
<path class="st1" d="M39.6,14.2c0.4-0.4,0.3-0.8,0.3-0.8l0.6,0.6c0.1,0.2-0.4,0.7-0.4,0.7L39.6,14.2z"/>
<path class="st1" d="M47.2,11.4l-0.3,0.2l-0.4,0.3c-0.3,0-0.6-0.5-0.6-0.5l0.6-0.4c0.1,0.2,0.3,0.3,0.4,0.4
	C47.1,11.3,47.2,11.4,47.2,11.4z"/>
<path class="st1" d="M54.2,8.4L53.7,8c-0.1-0.1,0.2-0.5,0.2-0.5l0.4,0.3C54.1,8.1,54.2,8.4,54.2,8.4z"/>
<path class="st1" d="M47,5.2l0.3-0.4c0.3,0.2,0.6,0.1,0.6,0.1l-0.3,0.5C47.3,5.5,47,5.2,47,5.2z"/>
<path class="st1" d="M64.8,5.3L64.8,5c0.1-0.1,0.3,0,0.3,0l0,0.3C64.9,5.2,64.8,5.3,64.8,5.3z"/>
<path class="st1" d="M66.7,14.3l-1,0.3c-0.3,0-0.5-0.8-0.5-0.8l0.9-0.3C66.2,14.1,66.7,14.3,66.7,14.3z"/>
<path class="st1" d="M61.1,10.6l-0.5,0.7c-0.2,0.1-0.7-0.2-0.7-0.2l0.4-0.6C60.7,10.7,61.1,10.6,61.1,10.6z"/>
<path class="st1" d="M63.9,13.1l0.6-0.8c0.3-0.2,0.9,0.3,0.9,0.3l-0.5,0.7C64.4,13,63.9,13.1,63.9,13.1z"/>
<path class="st1" d="M72.2,7.4l-0.4-0.6c0-0.2,0.4-0.5,0.4-0.5l0.4,0.5C72.2,7,72.2,7.4,72.2,7.4z"/>
<path class="st1" d="M80.8,3.2l-0.2-0.6c0-0.2,0.5-0.3,0.5-0.3l0.2,0.5C80.9,3,80.8,3.2,80.8,3.2z"/>
<path class="st1" d="M74.3,13.7c0.3-0.4,0.2-0.7,0.2-0.7l0.6,0.5c0.1,0.2-0.3,0.7-0.3,0.7L74.3,13.7z"/>
<path class="st1" d="M85.8,11c0.3,0.3,0.7,0.3,0.7,0.3l-0.5,0.5c-0.2,0.1-0.6-0.3-0.6-0.3L85.8,11z"/>
<path class="st1" d="M88.4,13.5c0.1,0.2,0.3,0.3,0.3,0.3L88,14.3c-0.3-0.5-0.7-0.5-0.7-0.5l0.7-0.5c0.1,0,0.2,0,0.3,0.1l0,0.1
	C88.3,13.5,88.3,13.5,88.4,13.5z"/>
<path class="st1" d="M89.4,9.7l-0.7-0.3c-0.2-0.2,0.1-0.7,0.1-0.7L89.5,9C89.3,9.4,89.4,9.7,89.4,9.7z"/>
<path class="st1" d="M91.5,6.9c-0.2,0.2-0.2,0.5-0.2,0.5l-0.5-0.6c0-0.1,0.1-0.3,0.2-0.4c0,0.1,0,0.2,0,0.3l0.2,0c0,0,0-0.2,0.1-0.4
	l0.3,0.3l0.1,0.1C91.6,6.8,91.5,6.9,91.5,6.9z"/>
<path class="st1" d="M93.7,9.9c0,0-0.2,0.1-0.4,0.3c-0.2-0.3-0.5-0.4-0.5-0.4l0.7-0.4c0.2,0,0.5,0.6,0.5,0.6l-0.2,0.1L93.7,9.9z"/>
<path class="st1" d="M83.8,10l0.1,0.6c-0.4,0-0.6,0.3-0.6,0.3l-0.1-0.7C83.2,10,83.8,10,83.8,10z"/>
<path class="st2" d="M1.1,13.7L1.2,14c-0.5,0.2-0.9,0.1-1.2,0v-0.4C0.4,13.7,1.1,13.7,1.1,13.7z"/>
<path class="st2" d="M6.1,11.3l-0.2,0c-0.1-0.7,0.3-1.1,0.3-1.1l0.2,0.2C6.1,10.6,6.1,11.3,6.1,11.3z"/>
<path class="st2" d="M3.3,5.6C2.8,5.7,2.4,5.4,2.4,5.4l0.1-0.2c0.1,0.2,0.7,0.2,0.7,0.2L3.3,5.6z"/>
<path class="st2" d="M8.2,4.3L8,4.2c0-0.4,0.4-0.6,0.4-0.6l0.1,0.1C8.3,3.8,8.2,4.3,8.2,4.3z"/>
<path class="st2" d="M15.3,11.5c-0.4,0-0.8,0.1-0.8,0.1l-0.2-0.4c0.5-0.2,0.9-0.2,1.2-0.2C15.4,11.2,15.3,11.4,15.3,11.5
	C15.3,11.5,15.3,11.5,15.3,11.5z"/>
<path class="st2" d="M18.8,10.3c-0.1,0.1-0.1,0.1-0.2,0.1c-0.8,0.6-1.6,0.5-1.6,0.5l0.1-0.4c0.3,0.1,1-0.2,1.3-0.4
	c0.1,0,0.1-0.1,0.1-0.1L18.8,10.3z"/>
<path class="st2" d="M24.4,14.3l-0.1,0.4c-0.1-0.1-0.4,0-0.6,0c-0.2,0-0.4,0.1-0.5,0.2c-0.2,0.1-0.4,0.2-0.4,0.2l-0.3-0.3
	c0.1,0,0.1-0.1,0.2-0.1c0.5-0.3,1-0.4,1.3-0.4C24.3,14.2,24.4,14.3,24.4,14.3z"/>
<path class="st2" d="M26.6,6.8l0.2-0.2c0,0.1,0.1,0.1,0.2,0.2c0,0.1-0.1,0.2-0.2,0.3C26.7,6.9,26.6,6.8,26.6,6.8z"/>
<path class="st2" d="M27.2,6.8C27.5,6.9,27.9,7,27.9,7l0,0.3c-0.1,0-0.2,0-0.3,0C27.5,7.2,27.3,7,27.2,6.8z"/>
<path class="st2" d="M41,5.9l-0.2-0.1c0.2-0.6,0.7-0.8,0.7-0.8l0.1,0.2C41.3,5.3,41,5.9,41,5.9z"/>
<path class="st2" d="M32.3,7.5l-0.1-0.2c0.3-0.1,0.6-0.7,0.6-0.7l0.2,0C32.9,7.2,32.3,7.5,32.3,7.5z"/>
<path class="st2" d="M41.1,13.3L40.9,13c0.8-0.6,1.7-0.4,1.7-0.4L42.5,13C42.1,12.8,41.1,13.3,41.1,13.3z"/>
<path class="st2" d="M50.6,13.6l0-0.4c0.4,0.1,1.2-0.6,1.2-0.6l0.3,0.2C51.5,13.6,50.6,13.6,50.6,13.6z"/>
<path class="st2" d="M60.7,9.9l-0.3,0c0-0.8,0.6-1.2,0.6-1.2L61.2,9C60.9,9.1,60.7,9.9,60.7,9.9z"/>
<path class="st2" d="M52.1,9.5L52,9.2c0.3,0,0.7-0.6,0.7-0.6l0.2,0.1C52.7,9.3,52.1,9.5,52.1,9.5z"/>
<path class="st2" d="M69.9,8.2l-0.2,0c0.1-0.4,0.5-0.5,0.5-0.5l0.1,0.2C70.2,7.8,69.9,8.2,69.9,8.2z"/>
<path class="st2" d="M70.6,4.3l0.2,0c-0.1,0.2,0.4,0.7,0.4,0.7L71,5.2C70.6,4.9,70.6,4.3,70.6,4.3z"/>
<path class="st2" d="M66.7,9c0.3,0.6,0,1.1,0,1.1l-0.2-0.1c0.2-0.2,0-0.9,0-0.9L66.7,9z"/>
<path class="st2" d="M79.9,5.9L79.7,6c-0.2-0.6,0.1-1,0.1-1L80,5C79.8,5.2,79.9,5.9,79.9,5.9z"/>
<path class="st2" d="M81.8,3.3c-0.3-0.4-0.1-0.8-0.1-0.8l0.2,0.1C81.8,2.7,82,3.2,82,3.2L81.8,3.3z"/>
<path class="st2" d="M78.1,15.2l-0.4,0c0.1-0.4-0.6-1.4-0.6-1.4l0.3-0.3C78.2,14.2,78.1,15.2,78.1,15.2z"/>
<path class="st2" d="M92.2,13.6L92,13.9c-0.1-0.1-0.2-0.1-0.4-0.2c-0.3-0.3-0.5-0.6-0.6-0.8C91,12.7,91,12.6,91,12.6l0.1,0l0.2,0
	c0,0.2,0.1,0.4,0.3,0.6C91.9,13.4,92.2,13.6,92.2,13.6z"/>
<path class="st2" d="M88.2,12.2l0-0.3c0.3,0.1,1-0.4,1-0.4l0.2,0.2C89,12.2,88.2,12.2,88.2,12.2z"/>
<path class="st2" d="M93.7,9.9l0.1,0.2l0.1,0.1c-0.4,0.1-0.7,1.1-0.7,1.1l-0.1,0c0-0.1,0-0.3,0-0.4l-0.2,0c0.1-0.3,0.3-0.6,0.4-0.7
	C93.5,10,93.7,9.9,93.7,9.9z"/>
<path class="st2" d="M85.2,9.3l0-0.3c0.3,0.1,1.1-0.6,1.1-0.6l0.3,0.2C86,9.3,85.2,9.3,85.2,9.3z"/>
<path class="st2" d="M91,6.7c0-0.1,0-0.2,0-0.3c0.1-0.4,0.3-0.6,0.3-0.6l0.2,0.2c-0.1,0.1-0.2,0.2-0.2,0.4c0,0.2-0.1,0.4-0.1,0.4
	L91,6.7z"/>
<path class="st2" d="M95.5,4c-0.1-0.5,0.2-0.8,0.2-0.8l0.1,0.1c-0.1,0.1-0.1,0.6-0.1,0.6L95.5,4z"/>
<path class="st2" d="M86.4,13.2l-0.4,0c-0.1-1,0.6-1.5,0.6-1.5l0.3,0.3C86.5,12.2,86.4,13.2,86.4,13.2z"/>
<path class="st2" d="M64.3,13.4l0.4,0.1c-0.3,1.1-1.3,1.5-1.3,1.5l-0.2-0.4C63.7,14.6,64.3,13.4,64.3,13.4z"/>
<path class="st3" d="M12.6,11.9c-0.5,0.1-1-0.1-1-0.1c0-0.4,0.1-0.9,0.1-0.9c0.2,0.3,0.9,0.4,0.9,0.4L12.6,11.9z"/>
<path class="st3" d="M4.1,9.8C4.2,9.5,3.8,9,3.8,9l0.1-0.1l0-0.1l0.1-0.2c0.4,0.2,0.6,0.6,0.6,0.6C4.5,9.5,4.1,9.8,4.1,9.8z"/>
<path class="st3" d="M0,7.1V6.8c0.1,0.2,0.1,0.3,0.1,0.3C0.1,7.1,0,7.1,0,7.1z"/>
<path class="st3" d="M2.7,13.5l-0.5,0c0-0.2,0-0.3,0-0.4l0.4,0.1c-0.1-0.1-0.3-0.3-0.4-0.4c0-0.1,0.1-0.2,0.1-0.2
	c0.3,0,0.6,0,0.8,0.1c0.1,0,0.1,0,0.1,0c0,0-0.1,0.1-0.1,0.1c-0.1,0.1-0.2,0.4-0.3,0.5C2.7,13.4,2.7,13.5,2.7,13.5z"/>
<path class="st3" d="M16.4,11.4L16.2,12c-0.6-0.1-0.9-0.4-0.9-0.4c0,0,0,0,0,0c0.1-0.1,0.1-0.3,0.2-0.5c0.1-0.2,0.2-0.4,0.2-0.4
	C15.8,11,16.4,11.4,16.4,11.4z"/>
<path class="st3" d="M17.8,6.7c0.2,0.1,0.7-0.1,0.7-0.1l0.2,0.3c-0.3,0.2-0.6,0.3-0.6,0.3C18,7,17.8,6.7,17.8,6.7z"/>
<path class="st3" d="M27.6,7.3C27.6,7.3,27.6,7.3,27.6,7.3l-0.2,0.4c-0.4-0.2-0.6-0.4-0.6-0.4c0-0.1,0.1-0.1,0.1-0.2
	C26.9,6.9,27,6.8,27,6.7c0-0.1,0.1-0.1,0.1-0.1c0,0.1,0,0.1,0.1,0.2C27.3,7,27.5,7.2,27.6,7.3z"/>
<path class="st3" d="M13.5,5.3L13.7,5c0.3,0.2,0.5,0.4,0.5,0.4c-0.1,0.2-0.4,0.5-0.4,0.5C13.8,5.6,13.5,5.3,13.5,5.3z"/>
<path class="st3" d="M24.6,13.5c0.2-0.4,0.1-1.1,0.1-1.1l0.6-0.2c0.3,0.5,0.3,1,0.3,1C25.2,13.3,24.6,13.5,24.6,13.5z"/>
<path class="st3" d="M30.6,14c-0.5-0.2-0.8-0.6-0.8-0.6c0.2-0.3,0.5-0.8,0.5-0.8c0.1,0.4,0.6,0.9,0.6,0.9L30.6,14z"/>
<path class="st3" d="M43.9,11.5c-0.5,0.3-0.9,0.4-0.9,0.4c-0.2-0.3-0.3-0.9-0.3-0.9c0.4,0.2,1,0,1,0L43.9,11.5z"/>
<path class="st3" d="M38.2,8.9c-0.2,0.2-0.6,0.4-0.6,0.4c0-0.3-0.2-0.8-0.2-0.8l0.3-0.3C38.1,8.5,38.2,8.9,38.2,8.9z"/>
<path class="st3" d="M34.9,5.9C35.1,5.8,35,5.5,35,5.5l0.2-0.1c0.1,0.2,0.1,0.4,0.1,0.4C35.2,5.9,34.9,5.9,34.9,5.9z"/>
<path class="st3" d="M45.5,3.2c0-0.2,0.1-0.4,0.1-0.4c0.1,0.2,0.4,0.3,0.4,0.3L46,3.4C45.7,3.3,45.5,3.2,45.5,3.2z"/>
<path class="st3" d="M54.7,10c-0.2-0.3-0.2-0.5-0.2-0.5C54.7,9.4,55,9.3,55,9.3c-0.1,0.2,0,0.6,0,0.6L54.7,10z"/>
<path class="st3" d="M57.7,11l-0.3,0.2C57.1,11,57,10.7,57,10.7c0.2-0.1,0.5-0.3,0.5-0.3C57.5,10.6,57.7,11,57.7,11z"/>
<path class="st3" d="M50.1,9.5l0.2-0.3c0.3,0.2,0.5,0.5,0.5,0.5c-0.2,0.2-0.4,0.5-0.4,0.5C50.4,9.8,50.1,9.5,50.1,9.5z"/>
<path class="st3" d="M47.8,8.4l0.3-0.3c0.3,0.3,0.5,0.6,0.5,0.6C48.4,8.9,48,9.2,48,9.2C48.1,8.9,47.8,8.4,47.8,8.4z"/>
<path class="st3" d="M77.9,9.9c0-0.3-0.1-0.7-0.1-0.7c0.2,0.2,0.7,0.2,0.7,0.2l0.1,0.4C78.2,10,77.9,9.9,77.9,9.9z"/>
<path class="st3" d="M66.2,5.9l0.3-0.2c0.3,0.2,0.4,0.5,0.4,0.5c-0.2,0.2-0.4,0.4-0.4,0.4C66.4,6.3,66.2,5.9,66.2,5.9z"/>
<path class="st3" d="M70.5,2.3c-0.1-0.2-0.1-0.5-0.1-0.5C70.6,2,71,1.9,71,1.9L71,2.2C70.8,2.3,70.5,2.3,70.5,2.3z"/>
<path class="st3" d="M83.3,6c0.2-0.2,0.6-0.5,0.6-0.5c0,0.4,0.3,0.9,0.3,0.9l-0.4,0.4C83.5,6.4,83.3,6,83.3,6z"/>
<path class="st3" d="M83,11.7c0.2,0.4,0.2,0.8,0.2,0.8c-0.3,0.1-0.7,0.2-0.7,0.2c0.2-0.3,0.1-0.9,0.1-0.9L83,11.7z"/>
<path class="st3" d="M93.1,11.4c0,0.3-0.1,0.5-0.1,0.5c-0.4,0-0.9-0.1-0.9-0.1c0.3-0.2,0.4-0.9,0.4-0.9l0.3,0l0.2,0
	C93.1,11.1,93.1,11.2,93.1,11.4z"/>
<path class="st3" d="M88.3,13.1l0-0.1c0.1,0,0.2,0,0.3,0c0.3,0,0.6,0.1,0.6,0.1c0,0.1,0,0.3,0,0.5c0,0.2,0,0.3,0,0.3
	c-0.1-0.1-0.1-0.1-0.2-0.2c0,0,0,0,0,0c-0.2-0.1-0.3-0.1-0.4-0.2c-0.1,0-0.1,0-0.1,0l0-0.1L88.3,13.1L88.3,13.1z"/>
<path class="st3" d="M92.2,7.5l0.2,0.4c-0.3,0.3-0.7,0.4-0.7,0.4c-0.2-0.3-0.4-0.7-0.4-0.7C91.7,7.7,92.2,7.5,92.2,7.5z"/>
<path class="st3" d="M89.7,5.8C89.9,5.6,90,5.1,90,5.1l0.4,0c0.1,0.4,0,0.7,0,0.7C90.1,5.8,89.7,5.8,89.7,5.8z"/>
<path class="st3" d="M92.3,2.6c0.2,0.1,0.6,0,0.6,0l0.1,0.3c-0.3,0.2-0.6,0.2-0.6,0.2C92.4,2.9,92.3,2.6,92.3,2.6z"/>
<path class="st3" d="M77.9,10.7c0,0.3,0,0.8,0,0.8c-0.2-0.3-0.8-0.4-0.8-0.4l0-0.5C77.5,10.5,77.9,10.7,77.9,10.7z"/>
<path class="st3" d="M57.8,14.4c-0.1-0.3-0.7-0.7-0.7-0.7l0.2-0.5c0.5,0.1,0.8,0.4,0.8,0.4C58,13.9,57.8,14.4,57.8,14.4z"/>
<path class="st3" d="M34.8,9.4L35.1,9c0.4,0.2,0.6,0.5,0.6,0.5c-0.2,0.2-0.5,0.5-0.5,0.5C35.2,9.8,34.8,9.4,34.8,9.4z"/>
<path class="st3" d="M70,9.9c-0.1-0.3-0.2-0.8-0.2-0.8c0.3,0.2,0.9,0.2,0.9,0.2l0.1,0.5C70.4,10,70,9.9,70,9.9z"/>
<path class="st3" d="M73.6,10c0,0.4,0.3,0.9,0.3,0.9l-0.4,0.4c-0.4-0.3-0.6-0.7-0.6-0.7C73.3,10.3,73.6,10,73.6,10z"/>
<path class="st4" d="M2.6,13.2l-0.4-0.1L1.8,13c0,0-0.4-0.4-0.5-0.9l0.3-0.2c0,0,0.2,0.3,0.5,0.7c0,0.1,0.1,0.1,0.1,0.2
	C2.3,12.9,2.4,13,2.6,13.2z"/>
<path class="st0" d="M0,9C0,9,0,9,0,9L0,9l0-0.5c0,0,0.1,0,0.1,0L0,9z"/>
<path class="st1" d="M0.5,6.5L0.1,6.1C0,6,0.4,5.7,0.4,5.7L0.7,6C0.5,6.2,0.5,6.5,0.5,6.5z"/>
</svg>
